# xmcd CD database file
#
# Track frame offsets:
#	150
#	12992
#	25650
#	37280
#	48515
#	58975
#	69395
#	78242
#	92060
#	110702
#	123560
#	139672
#
# Disc length: 2475 seconds
#
# Revision: 4
# Processed by: cddbd v1.5.2PL0 Copyright (c) Steve Scherf et al.
# Submitted via: CDex 1.78
#
DISCID=a809a90c
DTITLE=Various Artist - Blues Guitar - 20th Century Masters - The Millennium Collection
DYEAR=2003
DGENRE=Blues
TTITLE0=Muddy Waters - I Just Want to Make Love to You
TTITLE1=Jimmy Rogers - That's All Right
TTITLE2=John Lee Hooker - Walkin' the Boogie (alternate)
TTITLE3=Bo Diddley - Who Do You Love?
TTITLE4=Buddy Guy - First Time I Met the Blues
TTITLE5=Elmore James - Talk to Me Baby (I Can't Hold Out)
TTITLE6=Sonny Boy Williamson - Checkin' Up On My Baby
TTITLE7=Albert Collins - Frosty
TTITLE8=Bobby "Blue" Bland - Stormy Monday Blues
TTITLE9=Howlin' Wolf - Killing Floor
TTITLE10=John Mayall's Bluesbreakers With Eric Clapton - All Your Love
TTITLE11=B.B. King - Lucille
EXTD=YEAR: 2003
EXTT0=
EXTT1=
EXTT2=
EXTT3=
EXTT4=
EXTT5=
EXTT6=
EXTT7=
EXTT8=
EXTT9=
EXTT10=
EXTT11=
PLAYORDER=
